<?xml version="1.0" encoding="utf-8"?>
<!-- Generator: Adobe Illustrator 28.0.0, SVG Export Plug-In . SVG Version: 6.00 Build 0)  -->
<svg version="1.1" id="Layer_1" xmlns="http://www.w3.org/2000/svg" xmlns:xlink="http://www.w3.org/1999/xlink" x="0px" y="0px"
	 viewBox="0 0 583 577.3" style="enable-background:new 0 0 583 577.3;" xml:space="preserve">
<style type="text/css">
	.st0{fill:#FEF1DB;}
	.st1{fill:#FD9B02;}
	.st2{fill:#FD6508;}
	.st3{fill:#027772;}
	.st4{fill:#471C05;}
	.st5{fill:#FC9A02;}
	.st6{fill:#E74C0D;}
	.st7{fill:#9A8D7F;}
	.st8{fill:#035957;}
	.st9{fill:#170000;}
	.st10{fill:#E6FEFD;}
	.st11{fill:#6C8D85;}
	.st12{fill:#525D48;}
	.st13{fill:#F5E0C2;}
	.st14{fill:#452B1C;}
</style>
<path class="st0" d="M578.5,292.9c0.6,19.2-2.2,41.6-7.3,63.8c-4.6,19.9-11.4,39-19.8,57.5c-7.8,17-17.3,32.9-28.2,47.9
	c-12.4,17.1-26.8,32.4-42.9,46.2c-10.2,8.7-20.9,16.5-32,23.9c-16.7,11-34.5,19.9-53.1,27.4c-18.1,7.3-36.9,12.3-56.1,15.3
	c-11.1,1.7-22.4,2.7-33.7,3.6c-11.8,0.9-23.5,0-35.1-0.5c-15.5-0.7-30.8-3.7-46-7.4c-31.9-7.9-61.6-20.8-89.2-38.7
	c-13.2-8.6-25.4-18.3-37.2-28.8C74,481.5,55,456.4,39.7,428.4c-15-27.4-24.5-56.7-30.2-87.3c-4.3-23-4.8-46.4-3.8-69.7
	c0.6-13.9,2.9-27.7,5.4-41.4c5.2-28.9,15.5-55.9,29.1-81.8c9-17.1,20.1-32.9,32.8-47.6c7.1-8.2,14.4-16.3,22.4-23.6
	c16.9-15.6,35.1-29.4,55.3-40.6c18.4-10.2,37.6-18.5,57.7-24.8c14.8-4.6,30.1-7.8,45.6-9.5c15.6-1.7,31.3-2.5,47-2.1
	c12.8,0.3,25.5,1.7,38.2,3.8c11.2,1.8,22.2,4.3,33.2,7.3c22.5,6.2,43.7,15.1,63.9,26.8c24.7,14.3,46.7,32,66,52.8
	c14.2,15.3,26.6,31.9,37.2,50c13.2,22.5,22.9,46.3,29.5,71.4c4,15.3,6.8,30.8,8.2,46.6C578.1,268.9,578.4,279.1,578.5,292.9z
	 M220.9,336.6c-0.2,0.1-0.2,0.2-0.2,0.3c0,0,0-0.1,0-0.1c-0.2,0.4-0.4,0.8-0.6,1.3c-0.2,0.2-0.3,0.4-0.3,0.7l0.1-0.1
	c-0.8,0.6-1.2,1.5-1.4,2.4c0,0,0,0,0,0c-1.5,2.5-3,5.1-4.4,7.6l-0.2,0.1l0.1,0.2c-2.3,3.2-4.2,6.7-5.9,10.2l-0.1,0.3
	c-0.8,0.7-1.4,1.6-1.5,2.6l0,0c-0.8,0.6-1.1,1.4-1.4,2.3l0,0c-1,1.7-2,3.5-3,5.2l0,0c-0.8,0.9-1.4,1.8-1.6,2.9l0.1-0.1
	c-1.9,2.3-3.2,4.9-4.5,7.6l0,0c-2,3.5-4,7-6,10.5l0,0c-2.3,3.3-4.3,6.8-6,10.5c0,0,0,0,0,0c-1.5,2.5-2.9,5-4.4,7.6
	c-0.2,0.1-0.2,0.2-0.1,0.4c-0.8,0.7-1.2,1.6-1.5,2.5l0,0c-0.7,0.3-0.7,0.9-0.8,1.5c-6.7,11.6-13.5,23.1-20.2,34.7
	c-5.1,8.8-10.5,17.4-15,26.6c-1.3,1.2-1.9,2.8-2.7,4.3c0,0-0.1,0.1-0.1,0.1c-0.8,1.4-1.7,2.7-2.5,4.1c-0.5,0.4-0.8,0.8-0.7,1.4
	c1.1,1.2,2.6,0.8,3.9,0.8c26.3,0,52.7,0,79,0c1.3,0,2.8,0.4,3.9-0.7c0.9-0.1,1.7-0.2,2.6-0.2c35.2,0,70.3,0,105.5,0
	c9.2,0,18.4-0.2,27.6-0.3c0.3-0.1,0.5-0.2,0.8-0.3c0.2,0.1,0.4,0.2,0.7,0.2c0.2,0.6,0.6,0.7,1,0.2c3,0,6-0.1,9-0.1
	c25.4,0,50.9,0.1,76.3,0.1c0.3,0,0.5,0.1,0.8,0.1c0-0.2,0-0.4,0.1-0.6c-0.7-1.1-1.4-2.1-2-3.2l0.1,0.1c-0.4-0.8-0.8-1.6-1.3-2.4
	l-0.1-0.2c-1-1.7-2-3.3-3-5l0-0.2c-1.7-2.9-3.4-5.9-5.1-8.8l-0.1-0.3c-1.3-2.2-2.5-4.3-3.8-6.5l0-0.1c-0.7-1.2-1.4-2.4-2.1-3.7
	l0-0.2c-0.3-0.4-0.6-0.9-0.8-1.3l0-0.1c-3.6-6.2-7.2-12.3-10.8-18.5l0.1,0.1c-0.2-0.3-0.4-0.7-0.6-1l0.2-0.2c-0.3-0.5-0.7-0.9-1-1.4
	l0.1,0.1c-1-1.8-2.1-3.5-3.1-5.3l0.1,0.1c-0.6-1-1.2-1.9-1.8-2.9l0.1,0.1c-1.7-3.7-3.7-7.2-6.1-10.6l0.1,0.1
	c-0.2-0.4-0.4-0.7-0.7-1.1l0.2,0c-2.7-4.8-5.4-9.5-8.1-14.3l0-0.1c-1.6-2.7-3.2-5.3-4.8-8l0.1,0.1c-2.4-4.3-4.9-8.6-7.3-12.9l0-0.1
	c-1-1.6-1.9-3.2-2.9-4.9c-7.4-13-14.8-26.1-22.2-39.1c-8.4-14.6-16.9-29.2-25.4-43.8c12.7-22.2,25.4-44.5,38.2-66.7
	c21.4-37.3,42.8-74.5,64.1-111.8c2.9-5.1,5.7-10.3,8.8-16c-2.2,0-3.8,0-5.4,0c-77.6,0-155.2,0-232.8,0c-22.9,0-45.7,0.1-68.6,0.2
	c-0.5,0-1.4-0.4-1.5,0.3c-0.2,1,0.7,1.7,1.3,2.4c0,0,0,0,0,0c0.1,0.2,0.1,0.5,0.2,0.7c18.7,32.8,37.3,65.6,56,98.4
	c17.6,31,35.3,61.9,52.9,92.8c0,0.2,0,0.4,0,0.6c-0.1,0.3-0.3,0.6-0.4,0.9c-3.6,5.5-6.8,11.3-9.8,17.1c-0.8,0.6-1.2,1.5-1.5,2.4l0,0
	c-0.8,0.9-1.4,1.8-1.6,3l0,0c-1.8,2.3-3.2,4.9-4.4,7.6l0,0c-1.2,1.6-2.3,3.3-3,5.3l0,0c-1.3,1.6-2.3,3.3-3,5.3l0,0
	c-0.9,1.5-1.8,3-2.8,4.5c-0.2,0.2-0.3,0.4-0.2,0.6C221.3,336.1,221.1,336.3,220.9,336.6z"/>
<path class="st1" d="M139.3,93.9c22.9-0.1,45.7-0.1,68.6-0.2c77.6,0,155.2,0,232.8,0c1.6,0,3.2,0,5.4,0c-3.1,5.7-5.9,10.9-8.8,16
	c-21.4,37.3-42.8,74.5-64.1,111.8c-12.7,22.2-25.5,44.5-38.2,66.7c0,0-0.1,0-0.1,0c-1.4,0.8-2.9,0.5-4.4,0.5
	c-12.7,0.1-25.5,0.1-38.2,0.1c-0.1-0.1-0.2-0.2-0.2-0.3c0-64.5,0-129,0-193.4c-1.3-1.4-3.1-0.8-4.6-0.8c-48.3,0-96.6,0-144.8,0
	C141.4,94.3,140.3,94.6,139.3,93.9z"/>
<path class="st2" d="M292,95.2c0,64.5,0,129,0,193.4c-14.6,0-29.2,0-43.8,0c-17.6-30.9-35.3-61.9-52.9-92.8
	c-18.7-32.8-37.3-65.6-56-98.4c0.1-0.1,0.2-0.2,0.1-0.3c-0.1-0.2-0.2-0.3-0.4-0.5c0,0,0,0,0,0c0.8-2.5,2.9-1.5,4.5-1.5
	C193,95.2,242.5,95.2,292,95.2z"/>
<path class="st3" d="M238,307.2c3-5.9,6.2-11.6,9.8-17.1c14.5,0,29,0.1,43.5,0.1c0,22.4,0,44.8,0,67.2c0,1.6-0.5,3.2,0.6,4.7
	c0.1,0.4,0.1,0.8,0.2,1.2c0,0.7,0,1.5-0.1,2.2c-3.7,4.8-6.3,10.4-9.3,15.6c-15.8,27.1-31.7,54.1-47.5,81.1
	c-4,6.9-8.1,13.8-12.2,20.6c-26.7-0.2-53.4,0.4-80.2-0.2c-3.9-0.1-3.5-1.5-3.5-3.8c0,0,0.1-0.1,0.1-0.1c2.4-0.5,2.8-2.3,2.6-4.3
	c4.5-9.1,9.9-17.8,15-26.6c6.7-11.6,13.5-23.2,20.2-34.7c0.8-0.2,0.8-0.8,0.8-1.5c0,0,0,0,0,0c1.6-0.2,1.6-1.4,1.5-2.5
	c-0.1-0.2-0.1-0.3,0.1-0.4c3-1.6,4.3-4.3,4.4-7.6c0,0,0,0,0,0c3.9-2.4,4.8-6.6,6-10.5c0,0,0,0,0,0c3.1-2.9,5.5-6.1,6-10.5
	c0,0,0,0,0,0c3.3-1.5,4.1-4.4,4.5-7.6c0,0-0.1,0.1-0.1,0.1c1.9-0.2,1.5-1.7,1.6-2.9c0,0,0,0,0,0c2.4-0.9,2.7-3.1,3-5.2c0,0,0,0,0,0
	c1-0.5,1.5-1.2,1.4-2.3c0,0,0,0,0,0c1.6-0.2,1.6-1.4,1.5-2.6c0,0,0.1-0.3,0.1-0.3c3.4-2.6,5.3-6,5.9-10.2l-0.1-0.2
	c0,0,0.2-0.1,0.2-0.1c3.1-1.6,4.3-4.3,4.4-7.6c0,0,0,0,0,0c1.6-0.2,1.6-1.2,1.4-2.4c0,0-0.1,0.1-0.1,0.1c0.1,0,0.3-0.1,0.3-0.1
	c0-0.2,0-0.4-0.1-0.6c0.2-0.4,0.4-0.8,0.6-1.3c0,0,0,0.1,0,0.1c0-0.2,0-0.3,0.2-0.3c0.2-0.3,0.4-0.6,0.6-0.9c-0.1-0.3,0-0.5,0.2-0.6
	c2-0.8,3-2.3,2.8-4.5c0,0,0,0,0,0c2.4-0.9,2.8-3,3-5.3c0,0,0,0,0,0c2.2-1.1,3-2.9,3-5.3c0,0,0,0,0,0c2.6-1.9,4.2-4.3,4.4-7.6
	c0,0,0,0,0,0c2-0.2,1.5-1.7,1.6-3c0,0,0,0,0,0C238,309.4,238,308.4,238,307.2z"/>
<path class="st4" d="M292,365.5c0-0.7,0-1.5,0.1-2.2c1.4-2.4,2.8-4.7,4.2-7.1c11.1-19.3,22.1-38.5,33.1-57.8
	c1.9-3.3,4.3-6.3,5.4-10.1c0,0,0.1,0,0.1,0c8.5,14.6,17,29.2,25.4,43.8c7.5,13,14.8,26.1,22.2,39.1c-1.2,2.9,0.4,4.1,2.9,4.9
	c0,0,0,0.1,0,0.1c0.4,5.2,3.5,9,6.6,12.8c0.1,0.1,0.5,0.1,0.7,0.1c0,0-0.1-0.1-0.1-0.1c0.4,3.4,1.5,6.3,4.8,8c0,0,0,0.1,0,0.1
	c-0.8,4,2.4,6.3,4,9.2c1,1.8,0.9,4.9,4.1,5.1c0,0-0.2,0-0.2,0c0.2,0.4,0.4,0.7,0.7,1.1c0,0-0.1-0.1-0.1-0.1
	c0.1,4.6,3.2,7.6,6.1,10.6c0,0-0.1-0.1-0.1-0.1c0,1.3-0.4,2.9,1.8,2.9c0,0-0.1-0.1-0.1-0.1c-0.4,2.6,0.5,4.4,3.1,5.3
	c0,0-0.1-0.1-0.1-0.1c-0.1,0.8,0,1.4,1,1.4c0,0-0.2,0.2-0.2,0.1c0.2,0.3,0.4,0.7,0.6,1c0,0-0.1-0.1-0.1-0.1c0.1,1-0.2,2.1,0.2,2.9
	c2.8,5,5.8,9.9,8.7,14.8c0.5,0.8,1,1,1.8,0.7c0,0,0,0.1,0,0.1c-0.2,0.8-0.2,1.4,0.8,1.3c0,0,0,0.2,0,0.2c-0.2,1.7-0.5,3.6,2.1,3.7
	c0,0,0,0.1,0,0.1c0.3,2.7,0.2,5.7,3.8,6.5c0,0,0.1,0.3,0.1,0.3c0,4.5,2,7.9,5.1,8.8c0,0,0,0.2,0,0.2c-0.8,2.8,0.5,4.2,3,5
	c0,0,0.1,0.2,0.1,0.2c-0.6,1.3-0.4,2.3,1.3,2.4c0,0-0.1-0.1-0.1-0.1c0,0.6-0.1,1.1-0.1,1.7c-25.4,0-50.9,0-76.3,0.1
	c-1.6,0-3.3-0.5-4.7,0.7c-1.6,0.1-3.2,0-4.7-0.7c-0.3-0.3-0.6-0.5-0.8-0.8c-10.3-18-20.6-36.1-30.9-54.1
	C315.8,406.6,303.9,386.1,292,365.5z"/>
<path class="st5" d="M292,365.5c11.9,20.6,23.8,41.1,35.6,61.7c10.4,18,20.6,36.1,30.9,54.1c0.2,0.3,0.5,0.5,0.8,0.8
	c0.1,0.5,0.1,1,0.2,1.5c-0.3,0.1-0.5,0.2-0.8,0.3c-1-0.1-2-0.2-3-0.2c-40.5,0-81,0-121.5,0c-3.7,0-7.5-0.2-11.2-0.3
	c0-0.2,0-0.4-0.1-0.6c4.1-6.9,8.2-13.7,12.2-20.6c15.9-27,31.7-54,47.5-81.1C285.7,375.9,288.3,370.3,292,365.5z"/>
<path class="st6" d="M292,95.2c-49.5,0-99,0-148.5,0.1c-1.5,0-3.6-1-4.5,1.5c-0.6-0.7-1.5-1.4-1.3-2.4c0.1-0.8,1-0.3,1.5-0.3
	c1,0.7,2.2,0.4,3.3,0.4c48.3,0,96.6,0,144.8,0C288.9,94.4,290.6,93.7,292,95.2z"/>
<path class="st7" d="M223,483.4c3.7,0.1,7.5,0.3,11.2,0.3c40.5,0,81,0,121.5,0c1,0,2,0.1,3,0.2c-9.2,0.1-18.4,0.3-27.6,0.3
	c-35.2,0-70.3,0-105.5,0c-0.9,0-1.7,0.1-2.6,0.2c-0.2-0.1-0.4-0.2-0.7-0.2c0-0.2,0.1-0.4,0.1-0.5C222.5,483.5,222.8,483.5,223,483.4
	z"/>
<path class="st8" d="M223,483.4c-0.2,0.1-0.5,0.2-0.7,0.2c-27.2,0-54.5,0-81.7-0.1c-1.3,0-2.8,0.6-3.8-0.7c0.8-1.4,1.7-2.7,2.5-4.1
	c0,2.3-0.5,3.7,3.5,3.8c26.7,0.6,53.5,0,80.2,0.2C223,483,223.1,483.2,223,483.4z"/>
<path class="st9" d="M359.5,483.6c-0.1-0.5-0.1-1-0.2-1.5c1.5,0.7,3.1,0.8,4.7,0.7c26.1,0,52.2,0,78.3,0c0.9,0,2.3,0.9,2.7-0.8
	c0-0.6,0.1-1.1,0.1-1.7c0.7,1.1,1.4,2.1,2,3.2c-0.3,0.1-0.6,0.3-0.8,0.4c-25.4,0-50.9-0.1-76.3-0.1c-3,0-6,0.1-9,0.1
	c-0.3-0.1-0.6-0.1-1-0.2C359.9,483.7,359.7,483.7,359.5,483.6z"/>
<path class="st10" d="M222.2,484.2c0.2,0,0.5,0.1,0.7,0.2c-1.1,1.2-2.6,0.7-3.9,0.7c-26.3,0-52.7,0-79,0c-1.3,0-2.8,0.4-3.9-0.8
	c9,0,18,0.1,27,0C182.8,484.3,202.5,484.2,222.2,484.2z"/>
<path class="st11" d="M222.2,484.2c-19.7,0.1-39.4,0.1-59.2,0.2c-9,0-18,0-27,0c0-0.6,0.2-1.1,0.7-1.4c1.1,1.3,2.6,0.7,3.8,0.7
	c27.2,0.1,54.5,0.1,81.7,0.1C222.3,483.8,222.2,484,222.2,484.2z"/>
<path class="st9" d="M428.9,451.7c-0.8,0.3-1.4,0.1-1.8-0.7c-2.9-4.9-5.9-9.9-8.7-14.8c-0.4-0.8-0.2-1.9-0.2-2.9
	C421.7,439.4,425.3,445.5,428.9,451.7z"/>
<path class="st12" d="M291.2,290.2c-14.5,0-29-0.1-43.5-0.1c0.1-0.3,0.3-0.6,0.4-0.9c14.6,0,29.2,0.1,43.8,0.1
	c0,0.3-0.1,0.6-0.1,0.8C291.7,290.1,291.4,290.2,291.2,290.2z"/>
<path class="st11" d="M292,289.3c-14.6,0-29.2-0.1-43.8-0.1c0-0.2,0-0.4,0-0.6c14.6,0,29.2,0,43.8,0c0,0.1,0.1,0.2,0.2,0.3
	C292.2,289.1,292.1,289.2,292,289.3z"/>
<path class="st9" d="M405.6,411.3c-3.2-0.2-3.1-3.3-4.1-5.1c-1.6-2.9-4.8-5.2-4-9.2C400.2,401.8,402.9,406.5,405.6,411.3z"/>
<path class="st9" d="M392.7,389c-0.2,0-0.6,0-0.7-0.1c-3.1-3.8-6.2-7.6-6.6-12.8C387.8,380.4,390.3,384.7,392.7,389z"/>
<path class="st8" d="M190,390.6c-1.2,4-2.1,8.1-6,10.5C185.7,397.4,187.7,393.9,190,390.6z"/>
<path class="st9" d="M412.1,422.8c-2.9-3-6-6-6.1-10.6C408.4,415.6,410.4,419.2,412.1,422.8z"/>
<path class="st8" d="M214,349c-0.6,4.2-2.5,7.6-5.9,10.2C209.8,355.6,211.6,352.2,214,349z"/>
<path class="st8" d="M196,380.1c-0.5,4.4-2.9,7.6-6,10.5C192,387.1,194,383.6,196,380.1z"/>
<path class="st9" d="M440.9,472.6c-3.1-0.9-5.1-4.3-5.1-8.8C437.5,466.7,439.2,469.7,440.9,472.6z"/>
<path class="st8" d="M218.5,341.1c-0.2,3.3-1.4,6-4.4,7.6C215.5,346.1,217,343.6,218.5,341.1z"/>
<path class="st8" d="M200.5,372.5c-0.4,3.2-1.2,6.1-4.5,7.6C197.2,377.4,198.6,374.8,200.5,372.5z"/>
<path class="st9" d="M397.4,396.9c-3.3-1.7-4.4-4.6-4.8-8C394.2,391.6,395.8,394.3,397.4,396.9z"/>
<path class="st8" d="M184,401.1c-0.1,3.3-1.4,6-4.4,7.6C181.1,406.1,182.5,403.6,184,401.1z"/>
<path class="st8" d="M234.9,312.5c-0.2,3.3-1.9,5.7-4.4,7.6C231.7,317.5,233.1,314.9,234.9,312.5z"/>
<path class="st9" d="M435.6,463.5c-3.6-0.8-3.5-3.7-3.8-6.5C433.1,459.2,434.4,461.4,435.6,463.5z"/>
<path class="st9" d="M385.4,376c-2.5-0.7-4.1-2-2.9-4.9C383.5,372.7,384.5,374.4,385.4,376z"/>
<path class="st9" d="M443.9,477.8c-2.5-0.8-3.8-2.2-3-5C441.9,474.5,442.9,476.2,443.9,477.8z"/>
<path class="st9" d="M416.8,430.9c-2.6-0.9-3.5-2.7-3.1-5.3C414.7,427.3,415.8,429.1,416.8,430.9z"/>
<path class="st8" d="M205,364.4c-0.3,2.1-0.6,4.3-3,5.2C203,367.9,204,366.2,205,364.4z"/>
<path class="st8" d="M227.5,325.4c-0.2,2.2-0.6,4.3-3,5.3C225.2,328.7,226.2,326.9,227.5,325.4z"/>
<path class="st8" d="M230.5,320.1c0,2.3-0.8,4.2-3,5.3C228.2,323.5,229.3,321.7,230.5,320.1z"/>
<path class="st8" d="M224.5,330.6c0.2,2.2-0.7,3.7-2.8,4.5C222.7,333.6,223.6,332.1,224.5,330.6z"/>
<path class="st8" d="M142,474.3c0.1,2.1-0.2,3.8-2.6,4.3C140.1,477.2,140.7,475.5,142,474.3z"/>
<path class="st9" d="M431.9,456.9c-2.7-0.1-2.3-1.9-2.1-3.7C430.4,454.5,431.2,455.7,431.9,456.9z"/>
<path class="st9" d="M413.8,425.6c-2.2,0-1.7-1.6-1.8-2.9C412.6,423.7,413.2,424.7,413.8,425.6z"/>
<path class="st8" d="M202,369.6c-0.1,1.2,0.3,2.7-1.6,2.9C200.6,371.4,201.3,370.5,202,369.6z"/>
<path class="st8" d="M236.5,309.6c-0.1,1.2,0.4,2.8-1.6,3C235.1,311.4,235.7,310.5,236.5,309.6z"/>
<path class="st8" d="M179.5,409.1c0.1,1.2,0.1,2.3-1.5,2.5C178.2,410.6,178.7,409.7,179.5,409.1z"/>
<path class="st8" d="M208,359.5c0,1.2,0.1,2.4-1.5,2.6C206.6,361,207.2,360.2,208,359.5z"/>
<path class="st8" d="M219.9,338.7c0.2,1.2,0.1,2.2-1.4,2.4C218.7,340.2,219.1,339.3,219.9,338.7z"/>
<path class="st9" d="M445.2,480.4c-1.7-0.1-1.9-1-1.3-2.4C444.4,478.9,444.8,479.6,445.2,480.4z"/>
<path class="st8" d="M238,307.2c0.1,1.1,0,2.2-1.5,2.4C236.8,308.7,237.1,307.8,238,307.2z"/>
<path class="st8" d="M206.5,362c0.1,1.1-0.5,1.9-1.4,2.3C205.3,363.5,205.6,362.6,206.5,362z"/>
<path class="st8" d="M178,411.6c0,0.6-0.1,1.3-0.8,1.5C177.3,412.4,177.3,411.8,178,411.6z"/>
<path class="st9" d="M417.7,432.2c-1,0-1.1-0.6-1-1.4C417,431.3,417.4,431.7,417.7,432.2z"/>
<path class="st9" d="M429.7,453.1c-1,0-1.1-0.6-0.8-1.3C429.1,452.2,429.4,452.7,429.7,453.1z"/>
<path class="st9" d="M418.1,433.4c-0.2-0.3-0.4-0.7-0.6-1C417.7,432.7,417.9,433,418.1,433.4z"/>
<path class="st9" d="M406.1,412.4c-0.2-0.4-0.4-0.7-0.7-1.1C405.6,411.6,405.9,412,406.1,412.4z"/>
<path class="st8" d="M220.1,338.1c0,0.2,0.1,0.4,0.1,0.6c0,0-0.2,0.1-0.3,0.1C219.8,338.5,219.9,338.3,220.1,338.1z"/>
<path class="st8" d="M220.7,337c0,0,0-0.1,0-0.1C220.7,336.9,220.7,337,220.7,337z"/>
<path class="st8" d="M221.5,335.8c-0.2,0.3-0.4,0.6-0.6,0.9C221.1,336.3,221.3,336.1,221.5,335.8z"/>
<path class="st6" d="M139,96.7c0.1,0.2,0.3,0.3,0.4,0.5c0,0.1-0.1,0.2-0.1,0.3C139.2,97.1,139.1,96.9,139,96.7z"/>
<path class="st7" d="M360.1,483.8c0.3,0.1,0.6,0.1,1,0.2C360.7,484.5,360.4,484.4,360.1,483.8z"/>
<path class="st7" d="M446.4,484c0.3-0.1,0.6-0.3,0.8-0.4c0,0.2,0,0.4-0.1,0.6C446.9,484.1,446.6,484,446.4,484z"/>
<path class="st13" d="M292,289.3c0.1-0.1,0.2-0.2,0.2-0.4c12.7,0,25.5-0.1,38.2-0.1c1.5,0,3,0.3,4.4-0.5c-1.1,3.7-3.5,6.8-5.4,10.1
	c-11,19.3-22.1,38.6-33.1,57.8c-1.6,1-3.2,1.7-4.2-0.8c0-0.8,0-1.5,0-2.3c0.1-0.1,0.2-0.2,0.2-0.2c0-0.2-0.1-0.4-0.2-0.5
	c0-0.8,0-1.5,0-2.3c0.8-1,0.6-2.1,0.6-3.2c0-17.6,0-35.2,0-52.8c0-1.1,0.2-2.3-0.6-3.2c-0.1-0.3-0.2-0.5-0.2-0.8
	C291.9,289.8,291.9,289.6,292,289.3z"/>
<path class="st8" d="M292.1,350.1c0,0.8,0,1.5,0,2.3c0,0.3,0,0.5,0,0.8c0,0.8,0,1.5,0,2.3c-0.1,2.2-0.2,4.5-0.2,6.7
	c-1.1-1.5-0.6-3.1-0.6-4.7c0-22.4,0-44.8,0-67.2c0.2-0.1,0.4-0.1,0.7-0.1c0.1,0.3,0.2,0.5,0.2,0.8
	C292.1,310.6,292.1,330.4,292.1,350.1z"/>
<path class="st0" d="M291.9,362.1c0.1-2.2,0.2-4.5,0.2-6.7c0.9,2.6,2.5,1.8,4.2,0.8c-1.4,2.4-2.8,4.7-4.2,7.1
	C292,362.9,291.9,362.5,291.9,362.1z"/>
<path class="st14" d="M445,482c-0.5,1.7-1.9,0.8-2.7,0.8c-26.1,0.1-52.2,0-78.3,0c1.4-1.2,3.1-0.7,4.7-0.7
	C394.1,482.1,419.6,482.1,445,482z"/>
<path class="st0" d="M292.1,350.1c0-19.7,0-39.5,0-59.2c0.8,0.9,0.6,2.1,0.6,3.2c0,17.6,0,35.2,0,52.8
	C292.7,348,292.9,349.1,292.1,350.1z"/>
<path class="st0" d="M292.1,353.1c0-0.3,0-0.5,0-0.8c0.1,0.2,0.2,0.3,0.2,0.5C292.3,353,292.2,353,292.1,353.1z"/>
</svg>
